<svg width="32" height="32" viewBox="0 0 32 32" fill="none" xmlns="http://www.w3.org/2000/svg">
<path fill-rule="evenodd" clip-rule="evenodd" d="M17.3333 2.66667H14.6667C12.925 2.66667 11.4434 3.77975 10.8943 5.33334H9.33333L9.0983 5.34013C6.99856 5.46179 5.33333 7.2031 5.33333 9.33334V25.3333L5.34012 25.5684C5.46178 27.6681 7.20309 29.3333 9.33333 29.3333H22.6667L22.9017 29.3265C25.0014 29.2049 26.6667 27.4636 26.6667 25.3333V9.33334L26.6599 9.09831C26.5382 6.99857 24.7969 5.33334 22.6667 5.33334H21.1057C20.5566 3.77975 19.075 2.66667 17.3333 2.66667ZM21.1057 8.00001H22.6667L22.8222 8.00898C23.4853 8.086 24 8.64956 24 9.33334V25.3333L23.991 25.4888C23.914 26.152 23.3504 26.6667 22.6667 26.6667H9.33333L9.17784 26.6577C8.51472 26.5807 8 26.0171 8 25.3333V9.33334L8.00897 9.17784C8.08599 8.51473 8.64955 8.00001 9.33333 8.00001H10.8943C11.4434 9.5536 12.925 10.6667 14.6667 10.6667H17.3333C19.075 10.6667 20.5566 9.5536 21.1057 8.00001ZM13.3333 6.66667C13.3333 7.40305 13.9303 8 14.6667 8H17.3333C18.0697 8 18.6667 7.40305 18.6667 6.66667C18.6667 5.93029 18.0697 5.33334 17.3333 5.33334H14.6667C13.9303 5.33334 13.3333 5.93029 13.3333 6.66667Z" fill="currentColor"/>
</svg>
